<svg width="48" height="35" viewBox="0 0 48 35" fill="none" xmlns="http://www.w3.org/2000/svg">
<path d="M46.7251 0.44751L37.9891 34.7195H29.7331L25.0771 16.7195C24.9811 16.3675 24.8531 15.8395 24.6931 15.1355C24.5651 14.4315 24.4051 13.6635 24.2131 12.8315C24.0531 11.9995 23.9091 11.2155 23.7811 10.4795C23.6531 9.71151 23.5571 9.11951 23.4931 8.70351C23.4611 9.11951 23.3651 9.71151 23.2051 10.4795C23.0771 11.2155 22.9331 11.9995 22.7731 12.8315C22.6131 13.6315 22.4531 14.3995 22.2931 15.1355C22.1331 15.8395 22.0051 16.3835 21.9091 16.7675L17.3011 34.7195H9.04505L0.309052 0.44751H7.46105L11.8291 19.1675C11.9571 19.7115 12.1011 20.3835 12.2611 21.1835C12.4211 21.9515 12.5811 22.7675 12.7411 23.6315C12.9011 24.4635 13.0451 25.2795 13.1731 26.0795C13.3331 26.8795 13.4451 27.5675 13.5091 28.1435C13.5731 27.5355 13.6691 26.8475 13.7971 26.0795C13.9251 25.2795 14.0691 24.4795 14.2291 23.6795C14.3891 22.8475 14.5331 22.0795 14.6611 21.3755C14.8211 20.6395 14.9651 20.0635 15.0931 19.6475L20.0851 0.44751H26.9491L31.9411 19.6475C32.0371 20.0635 32.1651 20.6395 32.3251 21.3755C32.4851 22.0795 32.6451 22.8475 32.8051 23.6795C32.9651 24.5115 33.1091 25.3275 33.2371 26.1275C33.3651 26.8955 33.4611 27.5675 33.5251 28.1435C33.6211 27.3435 33.7651 26.3995 33.9571 25.3115C34.1491 24.1915 34.3571 23.0715 34.5811 21.9515C34.8371 20.8315 35.0451 19.9035 35.2051 19.1675L39.5731 0.44751H46.7251Z" fill="black"/>
<path d="M37.297 8.52788L39.2466 0.326935H47.3091L44.9625 8.52788H37.297Z" fill="#25D366"/>
</svg>
