<svg width="342" height="91" viewBox="0 0 342 91" fill="none" xmlns="http://www.w3.org/2000/svg">
<path d="M50.5187 26.6687C50.1766 23.2186 48.7082 20.5384 46.1135 18.628C43.5188 16.7177 39.9975 15.7625 35.5495 15.7625C32.5271 15.7625 29.9752 16.1902 27.8937 17.0456C25.8123 17.8724 24.2156 19.0272 23.1036 20.5099C22.0201 21.9925 21.4783 23.6748 21.4783 25.5567C21.4213 27.1249 21.7492 28.4935 22.462 29.6625C23.2034 30.8316 24.2156 31.8438 25.4987 32.6992C26.7817 33.526 28.2644 34.2531 29.9467 34.8804C31.6289 35.4792 33.4253 35.9924 35.3356 36.4201L43.2052 38.3019C47.0259 39.1573 50.533 40.2978 53.7264 41.7235C56.9199 43.1491 59.6856 44.9027 62.0237 46.9841C64.3618 49.0656 66.1723 51.5177 67.4554 54.3404C68.767 57.1632 69.4371 60.3994 69.4656 64.0491C69.4371 69.4095 68.0684 74.0571 65.3597 77.9919C62.6795 81.8982 58.8017 84.9348 53.7264 87.1018C48.6797 89.2403 42.5922 90.3095 35.4639 90.3095C28.3927 90.3095 22.2339 89.226 16.9876 87.059C11.7697 84.892 7.69235 81.6843 4.75552 77.4359C1.8472 73.159 0.321764 67.8698 0.179199 61.5685H18.0996C18.2992 64.5053 19.1403 66.9574 20.623 68.9248C22.1341 70.8637 24.1443 72.3321 26.6534 73.33C29.1911 74.2995 32.0566 74.7842 35.2501 74.7842C38.3865 74.7842 41.1095 74.328 43.419 73.4156C45.7571 72.5032 47.5677 71.2343 48.8507 69.6091C50.1338 67.9839 50.7754 66.1163 50.7754 64.0063C50.7754 62.0389 50.1908 60.3852 49.0218 59.0451C47.8813 57.705 46.199 56.5645 43.975 55.6235C41.7795 54.6826 39.0851 53.8272 35.8916 53.0574L26.3541 50.6623C18.9692 48.866 13.1383 46.0574 8.86138 42.2367C4.58444 38.416 2.46023 33.2694 2.48875 26.797C2.46023 21.4936 3.87162 16.8602 6.72291 12.8969C9.60272 8.93364 13.5518 5.83999 18.57 3.61598C23.5883 1.39197 29.2909 0.279968 35.6778 0.279968C42.1787 0.279968 47.8528 1.39197 52.7 3.61598C57.5757 5.83999 61.3679 8.93364 64.0766 12.8969C66.7854 16.8602 68.1825 21.4508 68.268 26.6687H50.5187Z" fill="black"/>
<path d="M101.639 89.0692L76.576 1.47751H96.8059L111.305 62.3383H112.032L128.028 1.47751H145.349L161.302 62.4666H162.072L176.571 1.47751H196.801L171.738 89.0692H153.689L137.009 31.801H136.325L119.687 89.0692H101.639Z" fill="black"/>
<path d="M206.712 89.0692V1.47751H241.27C247.885 1.47751 253.531 2.6608 258.207 5.02737C262.911 7.36543 266.49 10.6872 268.942 14.9926C271.423 19.2696 272.663 24.3021 272.663 30.0902C272.663 35.9068 271.408 40.9109 268.899 45.1023C266.39 49.2651 262.755 52.4586 257.993 54.6826C253.26 56.9066 247.529 58.0186 240.8 58.0186H217.661V43.1349H237.806C241.341 43.1349 244.278 42.6502 246.616 41.6807C248.954 40.7113 250.694 39.2571 251.834 37.3182C253.003 35.3794 253.588 32.97 253.588 30.0902C253.588 27.1819 253.003 24.7298 251.834 22.7339C250.694 20.738 248.94 19.2268 246.574 18.2003C244.235 17.1454 241.284 16.6179 237.72 16.6179H225.232V89.0692H206.712ZM254.015 49.2081L275.785 89.0692H255.341L234.042 49.2081H254.015Z" fill="black"/>
<path d="M285.75 89.0692V1.47751H304.269V73.8005H341.821V89.0692H285.75Z" fill="black"/>
<path fill-rule="evenodd" clip-rule="evenodd" d="M171.706 22.0344L176.598 1.45715H196.828L190.94 22.0344H171.706Z" fill="#25D366"/>
</svg>
